{
	"asset":{
		"generator":"Khronos glTF Blender I/O v4.2.70",
		"version":"2.0"
	},
	"scene":0,
	"scenes":[
		{
			"name":"Scene",
			"nodes":[
				0,
				1,
				2,
				3,
				4,
				5,
				6,
				7,
				8,
				9
			]
		}
	],
	"nodes":[
		{
			"mesh":0,
			"name":"Antenna",
			"rotation":[
				0.009786201640963554,
				0.5980839729309082,
				-0.24669957160949707,
				0.7624559998512268
			],
			"translation":[
				-0.41025060415267944,
				-0.0038829874247312546,
				1.6650429964065552
			]
		},
		{
			"mesh":1,
			"name":"Antenna_Base",
			"rotation":[
				0.08521734923124313,
				0.3344730734825134,
				-0.2317206859588623,
				0.9094896912574768
			],
			"translation":[
				-0.27048975229263306,
				-0.0806180089712143,
				1.5671629905700684
			]
		},
		{
			"mesh":2,
			"name":"Antenna_Base_1",
			"rotation":[
				0.009786201640963554,
				0.5980839729309082,
				-0.24669957160949707,
				0.7624559998512268
			],
			"translation":[
				-0.3889979124069214,
				-0.05144476145505905,
				1.5454038381576538
			]
		},
		{
			"mesh":3,
			"name":"Body"
		},
		{
			"mesh":4,
			"name":"Cube.031",
			"rotation":[
				0.32916542887687683,
				0.6867798566818237,
				-0.012290273793041706,
				0.6479449272155762
			],
			"translation":[
				-0.07928763329982758,
				-0.23022326827049255,
				1.319197177886963
			]
		},
		{
			"mesh":5,
			"name":"Elytra",
			"translation":[
				0,
				0.9170003533363342,
				0.9143230319023132
			]
		},
		{
			"mesh":6,
			"name":"Leg_1",
			"translation":[
				-0.33346378803253174,
				0.11166495084762573,
				1.170337200164795
			]
		},
		{
			"mesh":7,
			"name":"Leg_2",
			"translation":[
				-0.5147316455841064,
				0.11166495084762573,
				0.49424323439598083
			]
		},
		{
			"mesh":8,
			"name":"Leg_3",
			"rotation":[
				0,
				0,
				-0.0021292669698596,
				0.9999977350234985
			],
			"translation":[
				-2.3479528427124023,
				-0.24156591296195984,
				-0.15778452157974243
			]
		},
		{
			"mesh":9,
			"name":"Mouth",
			"rotation":[
				0.7450670003890991,
				0.33743783831596375,
				-0.30323994159698486,
				0.4889339804649353
			],
			"translation":[
				-0.01699676364660263,
				-0.1823352575302124,
				1.4633724689483643
			]
		}
	],
	"materials":[
		{
			"doubleSided":true,
			"name":"Body",
			"normalTexture":{
				"index":0
			},
			"pbrMetallicRoughness":{
				"baseColorTexture":{
					"index":1
				},
				"metallicRoughnessTexture":{
					"index":2
				}
			}
		},
		{
			"doubleSided":true,
			"name":"Wings",
			"normalTexture":{
				"index":3
			},
			"pbrMetallicRoughness":{
				"baseColorTexture":{
					"index":4
				},
				"metallicRoughnessTexture":{
					"index":5
				}
			}
		}
	],
	"meshes":[
		{
			"name":"Cube.028",
			"primitives":[
				{
					"attributes":{
						"POSITION":0,
						"NORMAL":1,
						"TEXCOORD_0":2
					},
					"indices":3,
					"material":0
				}
			]
		},
		{
			"name":"Cube.027",
			"primitives":[
				{
					"attributes":{
						"POSITION":4,
						"NORMAL":5,
						"TEXCOORD_0":6
					},
					"indices":7,
					"material":0
				}
			]
		},
		{
			"name":"Cube.029",
			"primitives":[
				{
					"attributes":{
						"POSITION":8,
						"NORMAL":9,
						"TEXCOORD_0":10
					},
					"indices":11,
					"material":0
				}
			]
		},
		{
			"name":"Cube.001",
			"primitives":[
				{
					"attributes":{
						"POSITION":12,
						"NORMAL":13,
						"TEXCOORD_0":14,
						"COLOR_0":15,
						"COLOR_1":16
					},
					"indices":17,
					"material":0
				}
			]
		},
		{
			"name":"Cube.031",
			"primitives":[
				{
					"attributes":{
						"POSITION":18,
						"NORMAL":19,
						"TEXCOORD_0":20
					},
					"indices":21,
					"material":0
				}
			]
		},
		{
			"name":"Cube.002",
			"primitives":[
				{
					"attributes":{
						"POSITION":22,
						"NORMAL":23,
						"TEXCOORD_0":24,
						"COLOR_0":25,
						"COLOR_1":26
					},
					"indices":27,
					"material":1
				}
			]
		},
		{
			"name":"Cube.003",
			"primitives":[
				{
					"attributes":{
						"POSITION":28,
						"NORMAL":29,
						"TEXCOORD_0":30
					},
					"indices":31,
					"material":0
				}
			]
		},
		{
			"name":"Cube.007",
			"primitives":[
				{
					"attributes":{
						"POSITION":32,
						"NORMAL":33,
						"TEXCOORD_0":34
					},
					"indices":35,
					"material":0
				}
			]
		},
		{
			"name":"Cube.014",
			"primitives":[
				{
					"attributes":{
						"POSITION":36,
						"NORMAL":37,
						"TEXCOORD_0":38
					},
					"indices":39,
					"material":0
				}
			]
		},
		{
			"name":"Cube.030",
			"primitives":[
				{
					"attributes":{
						"POSITION":40,
						"NORMAL":41,
						"TEXCOORD_0":42
					},
					"indices":43,
					"material":0
				}
			]
		}
	],
	"textures":[
		{
			"sampler":0,
			"source":0
		},
		{
			"sampler":0,
			"source":1
		},
		{
			"sampler":0,
			"source":2
		},
		{
			"sampler":0,
			"source":3
		},
		{
			"sampler":0,
			"source":4
		},
		{
			"sampler":0,
			"source":5
		}
	],
	"images":[
		{
			"mimeType":"image/png",
			"name":"ladybug_body_normal",
			"uri":"textures/ladybug_body_normal.png"
		},
		{
			"mimeType":"image/png",
			"name":"LadyBug_body_BaseColor3",
			"uri":"textures/LadyBug_body_BaseColor3.png"
		},
		{
			"mimeType":"image/png",
			"name":"LadyBug_body_metallic-LadyBug_body_roughness",
			"uri":"textures/LadyBug_body_metallic-LadyBug_body_roughness.png"
		},
		{
			"mimeType":"image/png",
			"name":"ladybug4K_wings_normalM",
			"uri":"textures/ladybug4K_wings_normalM.png"
		},
		{
			"mimeType":"image/png",
			"name":"ladybug_wings_diffuse2",
			"uri":"textures/ladybug_wings_diffuse2.png"
		},
		{
			"mimeType":"image/png",
			"name":"ladybug_wings_metallic-ladybug_wings_roughness",
			"uri":"textures/ladybug_wings_metallic-ladybug_wings_roughness.png"
		}
	],
	"accessors":[
		{
			"bufferView":0,
			"componentType":5126,
			"count":280,
			"max":[
				-0.013757750391960144,
				0.5202784538269043,
				1.1736587285995483
			],
			"min":[
				-1.1855850219726562,
				-0.06547129899263382,
				-0.05088328197598457
			],
			"type":"VEC3"
		},
		{
			"bufferView":1,
			"componentType":5126,
			"count":280,
			"type":"VEC3"
		},
		{
			"bufferView":2,
			"componentType":5126,
			"count":280,
			"type":"VEC2"
		},
		{
			"bufferView":3,
			"componentType":5123,
			"count":840,
			"type":"SCALAR"
		},
		{
			"bufferView":4,
			"componentType":5126,
			"count":71,
			"max":[
				0.4558277726173401,
				0.46739524602890015,
				0.5512873530387878
			],
			"min":[
				-0.23527812957763672,
				-0.09325786679983139,
				-0.07525446265935898
			],
			"type":"VEC3"
		},
		{
			"bufferView":5,
			"componentType":5126,
			"count":71,
			"type":"VEC3"
		},
		{
			"bufferView":6,
			"componentType":5126,
			"count":71,
			"type":"VEC2"
		},
		{
			"bufferView":7,
			"componentType":5123,
			"count":312,
			"type":"SCALAR"
		},
		{
			"bufferView":8,
			"componentType":5126,
			"count":50,
			"max":[
				0.014806702733039856,
				0.3975208103656769,
				0.886561393737793
			],
			"min":[
				-0.3445422053337097,
				-0.07227649539709091,
				-0.05088328197598457
			],
			"type":"VEC3"
		},
		{
			"bufferView":9,
			"componentType":5126,
			"count":50,
			"type":"VEC3"
		},
		{
			"bufferView":10,
			"componentType":5126,
			"count":50,
			"type":"VEC2"
		},
		{
			"bufferView":11,
			"componentType":5123,
			"count":216,
			"type":"SCALAR"
		},
		{
			"bufferView":12,
			"componentType":5126,
			"count":366,
			"max":[
				1.0005335807800293,
				1.0280985832214355,
				1.7723264694213867
			],
			"min":[
				-1.0005335807800293,
				-0.3412776291370392,
				-1.9491851329803467
			],
			"type":"VEC3"
		},
		{
			"bufferView":13,
			"componentType":5126,
			"count":366,
			"type":"VEC3"
		},
		{
			"bufferView":14,
			"componentType":5126,
			"count":366,
			"type":"VEC2"
		},
		{
			"bufferView":15,
			"componentType":5121,
			"count":366,
			"normalized":true,
			"type":"VEC4"
		},
		{
			"bufferView":16,
			"componentType":5126,
			"count":366,
			"type":"VEC3"
		},
		{
			"bufferView":17,
			"componentType":5123,
			"count":1452,
			"type":"SCALAR"
		},
		{
			"bufferView":18,
			"componentType":5126,
			"count":66,
			"max":[
				0.013061590492725372,
				0.18403339385986328,
				0.2485676258802414
			],
			"min":[
				-0.47452691197395325,
				-0.07425069063901901,
				-0.07154413312673569
			],
			"type":"VEC3"
		},
		{
			"bufferView":19,
			"componentType":5126,
			"count":66,
			"type":"VEC3"
		},
		{
			"bufferView":20,
			"componentType":5126,
			"count":66,
			"type":"VEC2"
		},
		{
			"bufferView":21,
			"componentType":5123,
			"count":312,
			"type":"SCALAR"
		},
		{
			"bufferView":22,
			"componentType":5126,
			"count":94,
			"max":[
				1.3003413677215576,
				0.43467599153518677,
				-0.0048049092292785645
			],
			"min":[
				-1.3003413677215576,
				-0.8127597570419312,
				-2.9017691612243652
			],
			"type":"VEC3"
		},
		{
			"bufferView":23,
			"componentType":5126,
			"count":94,
			"type":"VEC3"
		},
		{
			"bufferView":24,
			"componentType":5126,
			"count":94,
			"type":"VEC2"
		},
		{
			"bufferView":25,
			"componentType":5121,
			"count":94,
			"normalized":true,
			"type":"VEC4"
		},
		{
			"bufferView":26,
			"componentType":5126,
			"count":94,
			"type":"VEC3"
		},
		{
			"bufferView":27,
			"componentType":5123,
			"count":396,
			"type":"SCALAR"
		},
		{
			"bufferView":28,
			"componentType":5126,
			"count":466,
			"max":[
				2.9752895832061768,
				0.022635936737060547,
				0.3045041561126709
			],
			"min":[
				-2.3083620071411133,
				-0.4720781743526459,
				-0.18908077478408813
			],
			"type":"VEC3"
		},
		{
			"bufferView":29,
			"componentType":5126,
			"count":466,
			"type":"VEC3"
		},
		{
			"bufferView":30,
			"componentType":5126,
			"count":466,
			"type":"VEC2"
		},
		{
			"bufferView":31,
			"componentType":5123,
			"count":1800,
			"type":"SCALAR"
		},
		{
			"bufferView":32,
			"componentType":5126,
			"count":478,
			"max":[
				3.337825059890747,
				0.022635936737060547,
				0.3045041561126709
			],
			"min":[
				-2.308361768722534,
				-0.4720781743526459,
				-0.18908077478408813
			],
			"type":"VEC3"
		},
		{
			"bufferView":33,
			"componentType":5126,
			"count":478,
			"type":"VEC3"
		},
		{
			"bufferView":34,
			"componentType":5126,
			"count":478,
			"type":"VEC2"
		},
		{
			"bufferView":35,
			"componentType":5123,
			"count":1800,
			"type":"SCALAR"
		},
		{
			"bufferView":36,
			"componentType":5126,
			"count":476,
			"max":[
				5.171022415161133,
				0.3881534934043884,
				0.13919690251350403
			],
			"min":[
				-0.4751133918762207,
				-0.11982494592666626,
				-0.354388028383255
			],
			"type":"VEC3"
		},
		{
			"bufferView":37,
			"componentType":5126,
			"count":476,
			"type":"VEC3"
		},
		{
			"bufferView":38,
			"componentType":5126,
			"count":476,
			"type":"VEC2"
		},
		{
			"bufferView":39,
			"componentType":5123,
			"count":1800,
			"type":"SCALAR"
		},
		{
			"bufferView":40,
			"componentType":5126,
			"count":76,
			"max":[
				0.11811572313308716,
				0.4814029932022095,
				0.09675511717796326
			],
			"min":[
				-0.46742042899131775,
				-0.14015774428844452,
				-0.10262493044137955
			],
			"type":"VEC3"
		},
		{
			"bufferView":41,
			"componentType":5126,
			"count":76,
			"type":"VEC3"
		},
		{
			"bufferView":42,
			"componentType":5126,
			"count":76,
			"type":"VEC2"
		},
		{
			"bufferView":43,
			"componentType":5123,
			"count":360,
			"type":"SCALAR"
		}
	],
	"bufferViews":[
		{
			"buffer":0,
			"byteLength":3360,
			"byteOffset":0,
			"target":34962
		},
		{
			"buffer":0,
			"byteLength":3360,
			"byteOffset":3360,
			"target":34962
		},
		{
			"buffer":0,
			"byteLength":2240,
			"byteOffset":6720,
			"target":34962
		},
		{
			"buffer":0,
			"byteLength":1680,
			"byteOffset":8960,
			"target":34963
		},
		{
			"buffer":0,
			"byteLength":852,
			"byteOffset":10640,
			"target":34962
		},
		{
			"buffer":0,
			"byteLength":852,
			"byteOffset":11492,
			"target":34962
		},
		{
			"buffer":0,
			"byteLength":568,
			"byteOffset":12344,
			"target":34962
		},
		{
			"buffer":0,
			"byteLength":624,
			"byteOffset":12912,
			"target":34963
		},
		{
			"buffer":0,
			"byteLength":600,
			"byteOffset":13536,
			"target":34962
		},
		{
			"buffer":0,
			"byteLength":600,
			"byteOffset":14136,
			"target":34962
		},
		{
			"buffer":0,
			"byteLength":400,
			"byteOffset":14736,
			"target":34962
		},
		{
			"buffer":0,
			"byteLength":432,
			"byteOffset":15136,
			"target":34963
		},
		{
			"buffer":0,
			"byteLength":4392,
			"byteOffset":15568,
			"target":34962
		},
		{
			"buffer":0,
			"byteLength":4392,
			"byteOffset":19960,
			"target":34962
		},
		{
			"buffer":0,
			"byteLength":2928,
			"byteOffset":24352,
			"target":34962
		},
		{
			"buffer":0,
			"byteLength":1464,
			"byteOffset":27280,
			"target":34962
		},
		{
			"buffer":0,
			"byteLength":4392,
			"byteOffset":28744,
			"target":34962
		},
		{
			"buffer":0,
			"byteLength":2904,
			"byteOffset":33136,
			"target":34963
		},
		{
			"buffer":0,
			"byteLength":792,
			"byteOffset":36040,
			"target":34962
		},
		{
			"buffer":0,
			"byteLength":792,
			"byteOffset":36832,
			"target":34962
		},
		{
			"buffer":0,
			"byteLength":528,
			"byteOffset":37624,
			"target":34962
		},
		{
			"buffer":0,
			"byteLength":624,
			"byteOffset":38152,
			"target":34963
		},
		{
			"buffer":0,
			"byteLength":1128,
			"byteOffset":38776,
			"target":34962
		},
		{
			"buffer":0,
			"byteLength":1128,
			"byteOffset":39904,
			"target":34962
		},
		{
			"buffer":0,
			"byteLength":752,
			"byteOffset":41032,
			"target":34962
		},
		{
			"buffer":0,
			"byteLength":376,
			"byteOffset":41784,
			"target":34962
		},
		{
			"buffer":0,
			"byteLength":1128,
			"byteOffset":42160,
			"target":34962
		},
		{
			"buffer":0,
			"byteLength":792,
			"byteOffset":43288,
			"target":34963
		},
		{
			"buffer":0,
			"byteLength":5592,
			"byteOffset":44080,
			"target":34962
		},
		{
			"buffer":0,
			"byteLength":5592,
			"byteOffset":49672,
			"target":34962
		},
		{
			"buffer":0,
			"byteLength":3728,
			"byteOffset":55264,
			"target":34962
		},
		{
			"buffer":0,
			"byteLength":3600,
			"byteOffset":58992,
			"target":34963
		},
		{
			"buffer":0,
			"byteLength":5736,
			"byteOffset":62592,
			"target":34962
		},
		{
			"buffer":0,
			"byteLength":5736,
			"byteOffset":68328,
			"target":34962
		},
		{
			"buffer":0,
			"byteLength":3824,
			"byteOffset":74064,
			"target":34962
		},
		{
			"buffer":0,
			"byteLength":3600,
			"byteOffset":77888,
			"target":34963
		},
		{
			"buffer":0,
			"byteLength":5712,
			"byteOffset":81488,
			"target":34962
		},
		{
			"buffer":0,
			"byteLength":5712,
			"byteOffset":87200,
			"target":34962
		},
		{
			"buffer":0,
			"byteLength":3808,
			"byteOffset":92912,
			"target":34962
		},
		{
			"buffer":0,
			"byteLength":3600,
			"byteOffset":96720,
			"target":34963
		},
		{
			"buffer":0,
			"byteLength":912,
			"byteOffset":100320,
			"target":34962
		},
		{
			"buffer":0,
			"byteLength":912,
			"byteOffset":101232,
			"target":34962
		},
		{
			"buffer":0,
			"byteLength":608,
			"byteOffset":102144,
			"target":34962
		},
		{
			"buffer":0,
			"byteLength":720,
			"byteOffset":102752,
			"target":34963
		}
	],
	"samplers":[
		{
			"magFilter":9729,
			"minFilter":9987
		}
	],
	"buffers":[
		{
			"byteLength":103472,
			"uri":"scene.bin"
		}
	]
}
